 <svg version="1.0" xmlns="http://www.w3.org/2000/svg" width="700.000000pt" height="700.000000pt" viewBox="0 0 700.000000 700.000000" preserveAspectRatio="xMidYMid meet">
<metadata>
Created by potrace 1.12, written by Peter Selinger 2001-2015
</metadata>
<g transform="translate(0.000000,700.000000) scale(0.100000,-0.100000)" fill="white" stroke="none">
<path d="M254 6746 l-34 -34 0 -914 c0 -1004 -4 -940 60 -973 24 -13 93 -15
420 -15 l390 0 0 -171 c0 -105 4 -179 11 -192 6 -12 200 -212 431 -444 l421
-421 -23 -37 c-12 -20 -31 -62 -40 -93 l-18 -57 -505 -3 -505 -2 -25 42 c-35
59 -93 115 -152 146 -43 23 -62 27 -140 27 -78 0 -97 -4 -140 -27 -60 -32
-124 -97 -156 -158 -20 -38 -24 -60 -24 -140 0 -84 3 -101 27 -146 40 -75 116
-139 195 -164 82 -25 114 -25 198 1 56 17 77 30 124 77 31 31 64 72 73 90 l17
32 507 -2 506 -3 22 -61 c13 -34 32 -78 44 -99 12 -20 20 -41 17 -46 -4 -5
-86 -9 -183 -9 l-176 0 -271 -270 -270 -270 -100 0 -100 0 -24 46 c-59 110
-197 184 -316 169 -113 -14 -222 -92 -269 -194 -16 -36 -21 -65 -21 -136 0
-78 4 -97 27 -140 74 -141 226 -212 377 -175 73 17 161 84 200 153 l32 56 144
3 145 3 268 268 267 267 853 0 852 0 0 -291 0 -290 -47 -21 c-643 -281 -881
-391 -906 -418 l-27 -30 0 -480 0 -479 23 -25 c27 -32 1027 -476 1070 -476 16
0 70 19 121 41 50 23 278 125 506 225 279 124 422 192 438 209 l22 26 0 479 0
480 -27 30 c-21 23 -137 79 -488 234 l-460 203 -3 292 -2 291 165 0 165 0 0
-92 c1 -116 11 -163 58 -258 86 -176 280 -300 469 -300 49 0 96 20 109 47 5
10 11 149 14 308 l5 290 360 3 360 2 267 -267 268 -268 145 -5 145 -5 33 -55
c111 -185 365 -214 513 -58 71 73 89 119 89 223 0 78 -4 97 -28 147 -63 128
-220 208 -350 179 -101 -22 -197 -93 -232 -172 l-18 -39 -100 0 -101 0 -271
270 -271 270 -176 0 c-97 0 -179 4 -182 9 -3 5 6 29 20 54 14 25 34 70 44 99
l18 53 507 3 506 2 17 -32 c9 -18 42 -59 73 -90 47 -47 68 -60 124 -77 81 -25
114 -26 185 -5 92 27 164 86 208 169 24 44 27 61 27 145 0 80 -4 102 -24 140
-32 61 -96 126 -156 158 -43 23 -62 27 -140 27 -78 0 -97 -4 -140 -27 -59 -31
-117 -87 -152 -145 l-25 -43 -503 0 -503 0 -17 53 c-10 28 -28 72 -41 96 l-25
45 420 420 c230 232 424 431 430 443 7 13 11 87 11 192 l0 171 390 0 c327 0
396 2 420 15 63 32 60 3 60 638 0 483 -2 582 -14 605 -8 15 -168 180 -355 367
l-341 340 -590 3 c-411 2 -597 -1 -611 -8 -11 -6 -29 -26 -39 -43 -19 -31 -20
-58 -20 -931 0 -884 0 -899 20 -931 11 -18 28 -37 38 -42 9 -4 197 -10 417
-13 l400 -5 3 -135 2 -135 -399 -399 -399 -399 -37 23 c-20 12 -62 31 -93 40
l-57 18 -8 68 c-10 88 -47 168 -122 262 -104 130 -216 199 -365 224 -60 10
-80 9 -157 -8 l-87 -19 -81 80 c-78 78 -127 110 -224 145 l-46 16 0 109 0 110
401 5 c384 5 403 6 424 25 50 44 50 47 50 635 0 449 -3 557 -14 583 -8 18
-168 186 -363 380 l-349 347 -582 0 c-647 0 -630 2 -658 -65 -12 -29 -14 -177
-14 -915 0 -943 -1 -920 50 -965 21 -19 40 -20 424 -25 l401 -5 0 -110 0 -109
-73 -28 c-93 -35 -146 -72 -218 -151 l-57 -63 -89 20 c-78 18 -96 19 -161 8
-140 -24 -259 -97 -360 -222 -75 -93 -115 -176 -123 -258 -8 -69 -12 -74 -69
-92 -22 -7 -60 -23 -84 -37 l-44 -25 -398 398 -399 399 2 135 3 135 400 5
c299 4 406 8 422 18 53 30 53 26 53 645 l0 574 -29 39 c-32 44 -630 639 -675
672 -29 22 -31 22 -613 22 l-585 0 -34 -34z m1058 -482 l3 -296 33 -29 32 -29
283 0 c155 0 288 -4 295 -8 10 -7 12 -101 10 -438 l-3 -429 -762 -3 -763 -2 0
765 0 765 435 0 434 0 3 -296z m2298 5 l0 -291 34 -34 34 -34 260 0 c143 0
274 -3 291 -6 l31 -6 0 -434 0 -434 -760 0 -760 0 0 765 0 765 435 0 435 0 0
-291z m2294 275 c3 -9 6 -142 6 -296 l0 -280 29 -29 29 -29 280 0 c154 0 287
-3 296 -6 14 -5 16 -54 16 -440 l0 -434 -762 2 -763 3 -3 763 -2 762 434 0
c386 0 435 -2 440 -16z m-1804 -411 c0 -2 -61 -3 -135 -3 l-135 0 0 137 0 138
135 -135 c74 -74 135 -136 135 -137z m-2425 127 l130 -130 -138 0 -137 0 0
130 c0 72 3 130 8 130 4 0 66 -58 137 -130z m4592 8 c68 -68 123 -126 123
-130 0 -5 -58 -8 -130 -8 l-130 0 0 130 c0 72 3 130 7 130 4 0 63 -55 130
-122z m-2622 -1930 c65 -34 116 -88 154 -165 50 -100 97 -114 196 -60 55 29
67 32 150 32 79 0 95 -3 135 -27 64 -37 147 -128 177 -194 24 -53 25 -63 19
-151 l-7 -94 34 -34 c30 -30 42 -35 80 -35 80 0 170 -35 230 -90 76 -69 102
-130 102 -240 0 -73 -4 -92 -27 -136 -15 -28 -50 -72 -78 -97 -70 -63 -141
-88 -265 -94 -113 -6 -128 -12 -155 -56 -18 -30 -20 -52 -20 -305 l0 -272 -40
20 c-54 27 -105 80 -137 143 -26 49 -28 62 -33 224 -4 153 -7 175 -26 200 -11
15 -35 32 -52 38 l-32 9 0 85 0 85 104 106 c80 81 106 113 111 140 3 19 5 105
3 190 l-3 155 -107 3 -108 3 0 -138 0 -138 -86 -85 c-132 -131 -128 -123 -134
-275 l-5 -130 -105 0 -105 0 -3 493 -2 492 -110 0 -110 0 -2 -492 -3 -493
-105 0 -105 0 -5 130 c-3 73 -10 139 -17 150 -6 11 -55 63 -107 115 l-96 95 0
138 0 138 -107 -3 -108 -3 -3 -155 c-2 -85 0 -171 3 -190 5 -27 31 -59 111
-141 l105 -106 -3 -84 -3 -84 -295 0 c-284 0 -297 1 -352 23 -72 29 -151 100
-186 166 -37 71 -38 195 -3 274 49 108 181 192 304 192 43 0 54 5 84 35 l34
34 -7 94 c-6 88 -5 98 19 151 34 73 125 169 193 202 76 37 171 32 266 -14 37
-17 76 -32 88 -32 44 0 80 30 111 93 48 96 116 158 209 188 14 5 61 7 105 5
62 -2 91 -8 130 -28z m-3045 -965 c58 -34 68 -116 21 -163 -35 -36 -73 -46
-110 -30 -43 18 -63 44 -68 92 -10 88 81 146 157 101z m5934 -24 c24 -28 28
-38 23 -76 -5 -49 -24 -75 -68 -93 -37 -16 -75 -6 -110 30 -31 31 -38 79 -18
123 29 64 122 73 173 16z m-5913 -978 c47 -48 36 -137 -22 -167 -48 -24 -87
-18 -125 20 -38 38 -44 77 -19 126 20 38 41 49 93 50 35 0 49 -6 73 -29z
m5890 19 c25 -14 49 -62 49 -101 0 -43 -56 -99 -99 -99 -43 0 -80 20 -97 51
-39 77 5 159 86 159 23 0 50 -5 61 -10z m-3121 -620 l0 -130 110 0 110 0 0
130 c0 72 3 130 8 130 14 0 582 -254 582 -260 0 -8 -682 -310 -700 -310 -17 0
-700 302 -700 310 0 7 558 258 578 259 9 1 12 -31 12 -129z m980 -617 l0 -318
-372 -165 c-204 -91 -375 -167 -380 -168 -4 -2 -7 139 -6 313 l3 318 375 167
c206 93 376 168 378 169 1 1 2 -142 2 -316z m-1350 143 l365 -163 3 -317 c1
-175 -1 -316 -6 -314 -4 1 -175 77 -380 168 l-372 165 0 313 c0 243 3 312 13
311 6 0 176 -73 377 -163z"></path>
<path d="M1420 1640 l0 -110 110 0 110 0 0 110 0 110 -110 0 -110 0 0 -110z"></path>
<path d="M5360 1640 l0 -110 110 0 110 0 0 110 0 110 -110 0 -110 0 0 -110z"></path>
<path d="M1422 1203 l3 -108 108 -3 107 -3 0 111 0 110 -110 0 -111 0 3 -107z"></path>
<path d="M1860 1200 l0 -111 108 3 107 3 3 108 3 107 -111 0 -110 0 0 -110z"></path>
<path d="M4922 1203 l3 -108 108 -3 107 -3 0 111 0 110 -110 0 -111 0 3 -107z"></path>
<path d="M5360 1200 l0 -111 108 3 107 3 3 108 3 107 -111 0 -110 0 0 -110z"></path>
<path d="M1427 873 c-4 -3 -7 -53 -7 -110 l0 -103 110 0 110 0 0 110 0 110
-103 0 c-57 0 -107 -3 -110 -7z"></path>
<path d="M5360 770 l0 -110 110 0 111 0 -3 108 -3 107 -107 3 -108 3 0 -111z"></path>
</g>
</svg>